<?xml version="1.0" encoding="iso-8859-1"?>
<!-- Generator: Adobe Illustrator 16.0.0, SVG Export Plug-In . SVG Version: 6.00 Build 0)  -->
<!DOCTYPE svg PUBLIC "-//W3C//DTD SVG 1.1//EN" "http://www.w3.org/Graphics/SVG/1.1/DTD/svg11.dtd">
<svg xmlns="http://www.w3.org/2000/svg" xmlns:xlink="http://www.w3.org/1999/xlink" version="1.1" id="Capa_1" x="0px" y="0px" width="512px" height="512px" viewBox="0 0 543.707 543.707" style="enable-background:new 0 0 543.707 543.707;" xml:space="preserve">
<g>
	<g>
		<path d="M278.93,34.895c-8.062-13.741-18.992-21.315-30.792-21.315c-12.451,0-23.792,8.654-31.107,23.734L5.365,473.383    c-7.066,14.555-7.153,28.65-0.258,39.656c6.904,11.016,19.613,17.088,35.802,17.088h463.78c16.344,0,28.783-5.996,35.029-16.896    c6.244-10.893,5.125-24.652-3.137-38.758L278.93,34.895z M142.721,372.002l16.074,25.217l24.433-0.059    c8.778,0,8.778,11.447,0,11.447h-28.286c-2.132,0.047-4.427-1.004-6.101-3.652l-9.515-14.908l-19.622,19.439l18.188,9.582    c7.478,3.586,6.369,10.146,6.369,10.146v41.223c0,4.668-3.777,8.473-8.454,8.473c-4.667,0-8.434-3.814-8.434-8.473v-32.98    L95.836,419.92c-3.758-2.084-6.321-6.131-6.321-10.711c0-3.145,1.167-6.033,3.156-8.186l30.973-31.029    c3.815-4.342,9.189-3.645,9.189-3.645C139.317,366.342,142.721,372.002,142.721,372.002z M139.661,358.461    c0-8.07,6.579-14.641,14.649-14.641c8.081,0,14.65,6.58,14.65,14.641c0,8.08-6.569,14.621-14.65,14.621    C146.24,373.092,139.67,366.541,139.661,358.461z M193.163,424.357c22.013,0,39.904,17.834,39.904,39.912    c0,22.07-17.891,39.934-39.904,39.934c-22.042,0-39.942-17.844-39.942-39.934C153.23,442.191,171.122,424.357,193.163,424.357z     M118.471,464.27c0,22.07-17.873,39.934-39.952,39.934c-21.994,0-39.895-17.854-39.895-39.934    c0-22.061,17.901-39.912,39.895-39.912C100.589,424.357,118.471,442.191,118.471,464.27z M115.286,290.74l12.527-25.81    l130.796,63.515l126.493-74.579l14.506,24.749l-125.984,74.291v158.105h-28.688V353.689L115.286,290.74z M307.119,138.447    c5.957-0.373,11.074,4.026,11.504,9.945c0.422,5.929-4.025,11.073-9.955,11.503l-48.166,3.481l-5.489,25.838    c0.201,0.172,2.505,2.237,3.787,3.27c0.995,0.804,1.999,1.635,2.955,2.496c-5.604,5.958-9.046,13.933-9.046,22.74    c0,2.811,0.373,5.518,1.033,8.128l-14.812,9.362c-0.182,0.096-2.065,0.096-2.295-0.029l-18.981-12.316    c-5.728-3.729-14.803-3.682-20.493,0.086l-18.561,12.23c-0.058,0-1.31,0-1.463-0.077l-17.25-12.756    c7.42-5.078,46.493-17.92,72.178-26.058c-0.096-1.052-0.086-2.132,0.144-3.213l8.95-42.084c1.004-4.676,4.973-8.147,9.754-8.492    L307.119,138.447z M314.158,217.711c0,2.18-0.268,4.284-0.736,6.321l-17.193,11.15c0,0-0.221,0.057-0.594,0.057    c-0.439,0-0.766-0.095-0.852-0.143l-15.289-11.523c-5.613-4.227-14.66-4.609-20.627-0.851l-0.583,0.373    c-0.334-1.75-0.535-3.548-0.535-5.384c0-15.577,12.632-28.2,28.208-28.2C301.535,189.511,314.158,202.143,314.158,217.711z     M174.65,243.281c1.271,0.947,3.92,1.014,5.25,0.143l18.561-12.25c4.781-3.146,12.001-3.184,16.801-0.067l19.01,12.345    c1.454,0.937,4.427,0.957,5.9,0.039l19.756-12.489c4.924-3.108,12.154-2.802,16.812,0.698l15.357,11.562    c1.262,0.956,3.9,1.042,5.23,0.182l19.01-12.326c5.002-3.251,12.23-2.821,16.811,1.004l18.408,15.338    c2.143,1.788,2.43,4.972,0.641,7.114c-1.004,1.195-2.439,1.817-3.893,1.817c-1.137,0-2.285-0.373-3.232-1.167l-18.406-15.357    c-1.168-0.975-3.559-1.109-4.83-0.287l-19.01,12.335c-4.916,3.194-12.145,2.936-16.811-0.593l-15.348-11.561    c-1.272-0.976-3.969-1.081-5.336-0.22l-19.756,12.479c-4.8,3.022-12.01,2.984-16.792-0.105l-19.01-12.335    c-1.435-0.928-4.322-0.918-5.738,0.028l-18.561,12.23c-4.887,3.232-12.125,3.031-16.83-0.44l-21.181-15.663    c-2.247-1.664-2.716-4.82-1.062-7.057c1.654-2.247,4.82-2.726,7.067-1.062L174.65,243.281z M395.219,445.223    c0,0,3.721,3.461,1.598,10.355l-9.936,44.322c-0.785,3.824-4.199,6.732-8.262,6.732c-4.648,0-8.445-3.787-8.445-8.443    c0-0.746,0.078-1.455,0.277-2.123l8.168-36.348l-20.129-19.574l-17.328,19.336c0,0-2.82,3.432-10.252,3.184l-35.123,0.066    c-3.93,0.049-7.496-2.609-8.395-6.598c-1.033-4.543,1.787-8.988,6.311-10.012c0.746-0.162,1.453-0.201,2.143-0.191l30.217,0.086    l44.695-51.818l-11.686-0.068l-20.291,23.447c-1.195,1.473-3.021,2.381-5.068,2.381c-3.643,0-6.561-2.936-6.561-6.549    c0-1.971,0.852-3.73,2.199-4.936l21.879-25.197c1.225-1.434,3.033-2.361,5.068-2.361l31.682-0.02c2.324,0,4.398,0.947,5.928,2.43    l20.207,20.186l16.734-16.705c1.156-1.004,2.686-1.588,4.34-1.588c3.758,0,6.789,3.031,6.789,6.779    c0,1.637-0.553,3.109-1.51,4.285l-20.195,20.33c-6.121,6.109-11.035,0.928-11.035,0.928l-12.385-12.432L377.5,427.484    L395.219,445.223z M393.316,368.654c0-8.701,7.076-15.748,15.777-15.748c8.693,0,15.76,7.047,15.76,15.748    c0,8.703-7.057,15.779-15.76,15.779C400.393,384.434,393.316,377.357,393.316,368.654z" fill="#FFFFFF"/>
	</g>
</g>
<g>
</g>
<g>
</g>
<g>
</g>
<g>
</g>
<g>
</g>
<g>
</g>
<g>
</g>
<g>
</g>
<g>
</g>
<g>
</g>
<g>
</g>
<g>
</g>
<g>
</g>
<g>
</g>
<g>
</g>
</svg>
